<mxfile host="app.diagrams.net" modified="2023-09-22T17:49:10.528Z" agent="Mozilla/5.0 (Windows NT 10.0; Win64; x64) AppleWebKit/537.36 (KHTML, like Gecko) Chrome/116.0.0.0 Safari/537.36" etag="ZzP_3-wrdIRkfZzjBKK9" version="21.8.0" type="device">
  <diagram name="Seite-1" id="uZCrA8D1OyV5XEQ8vXJu">
    <mxGraphModel dx="1728" dy="925" grid="1" gridSize="10" guides="1" tooltips="1" connect="1" arrows="1" fold="1" page="1" pageScale="1" pageWidth="827" pageHeight="1169" math="0" shadow="0">
      <root>
        <mxCell id="0" />
        <mxCell id="1" parent="0" />
        <mxCell id="KJVf8ySQo7RGiVAvwsRW-1" value="DB" style="shape=cylinder3;whiteSpace=wrap;html=1;boundedLbl=1;backgroundOutline=1;size=15;" vertex="1" parent="1">
          <mxGeometry x="330" y="50" width="60" height="80" as="geometry" />
        </mxCell>
        <mxCell id="KJVf8ySQo7RGiVAvwsRW-3" value="" style="swimlane;startSize=0;" vertex="1" parent="1">
          <mxGeometry x="80" y="240" width="560" height="280" as="geometry" />
        </mxCell>
        <mxCell id="KJVf8ySQo7RGiVAvwsRW-10" value="API Service&lt;br&gt;User and Admin" style="rounded=0;whiteSpace=wrap;html=1;" vertex="1" parent="KJVf8ySQo7RGiVAvwsRW-3">
          <mxGeometry x="220" y="170" width="120" height="80" as="geometry" />
        </mxCell>
        <mxCell id="KJVf8ySQo7RGiVAvwsRW-15" value="Python 3.10&lt;br&gt;Flask" style="text;html=1;align=center;verticalAlign=middle;resizable=0;points=[];autosize=1;strokeColor=none;fillColor=none;" vertex="1" parent="KJVf8ySQo7RGiVAvwsRW-3">
          <mxGeometry y="230" width="90" height="40" as="geometry" />
        </mxCell>
        <mxCell id="KJVf8ySQo7RGiVAvwsRW-20" value="Evaluation Service" style="rounded=0;whiteSpace=wrap;html=1;" vertex="1" parent="KJVf8ySQo7RGiVAvwsRW-3">
          <mxGeometry x="340" y="60" width="120" height="80" as="geometry" />
        </mxCell>
        <mxCell id="KJVf8ySQo7RGiVAvwsRW-21" value="Execution Service" style="rounded=0;whiteSpace=wrap;html=1;" vertex="1" parent="KJVf8ySQo7RGiVAvwsRW-3">
          <mxGeometry x="100" y="60" width="120" height="80" as="geometry" />
        </mxCell>
        <mxCell id="KJVf8ySQo7RGiVAvwsRW-4" value="" style="swimlane;startSize=0;" vertex="1" parent="1">
          <mxGeometry x="80" y="680" width="560" height="280" as="geometry" />
        </mxCell>
        <mxCell id="KJVf8ySQo7RGiVAvwsRW-5" value="User Frontend" style="rounded=0;whiteSpace=wrap;html=1;" vertex="1" parent="KJVf8ySQo7RGiVAvwsRW-4">
          <mxGeometry x="40" y="80" width="200" height="120" as="geometry" />
        </mxCell>
        <mxCell id="KJVf8ySQo7RGiVAvwsRW-6" value="Admin Frontend" style="rounded=0;whiteSpace=wrap;html=1;" vertex="1" parent="KJVf8ySQo7RGiVAvwsRW-4">
          <mxGeometry x="320" y="80" width="200" height="120" as="geometry" />
        </mxCell>
        <mxCell id="KJVf8ySQo7RGiVAvwsRW-7" value="Frontend Server" style="text;html=1;align=center;verticalAlign=middle;resizable=0;points=[];autosize=1;strokeColor=none;fillColor=none;" vertex="1" parent="KJVf8ySQo7RGiVAvwsRW-4">
          <mxGeometry x="10" y="10" width="110" height="30" as="geometry" />
        </mxCell>
        <mxCell id="KJVf8ySQo7RGiVAvwsRW-16" value="Python 3.10&lt;br&gt;Flask" style="text;html=1;align=center;verticalAlign=middle;resizable=0;points=[];autosize=1;strokeColor=none;fillColor=none;" vertex="1" parent="KJVf8ySQo7RGiVAvwsRW-4">
          <mxGeometry x="95" y="40" width="90" height="40" as="geometry" />
        </mxCell>
        <mxCell id="KJVf8ySQo7RGiVAvwsRW-17" value="Python 3.10&lt;br&gt;Flask" style="text;html=1;align=center;verticalAlign=middle;resizable=0;points=[];autosize=1;strokeColor=none;fillColor=none;" vertex="1" parent="KJVf8ySQo7RGiVAvwsRW-4">
          <mxGeometry x="375" y="40" width="90" height="40" as="geometry" />
        </mxCell>
        <mxCell id="KJVf8ySQo7RGiVAvwsRW-18" value="HTML&lt;br&gt;CSS" style="text;html=1;align=center;verticalAlign=middle;resizable=0;points=[];autosize=1;strokeColor=none;fillColor=none;" vertex="1" parent="KJVf8ySQo7RGiVAvwsRW-4">
          <mxGeometry x="110" y="200" width="60" height="40" as="geometry" />
        </mxCell>
        <mxCell id="KJVf8ySQo7RGiVAvwsRW-19" value="HTML&lt;br&gt;CSS" style="text;html=1;align=center;verticalAlign=middle;resizable=0;points=[];autosize=1;strokeColor=none;fillColor=none;" vertex="1" parent="KJVf8ySQo7RGiVAvwsRW-4">
          <mxGeometry x="390" y="200" width="60" height="40" as="geometry" />
        </mxCell>
        <mxCell id="KJVf8ySQo7RGiVAvwsRW-8" value="" style="shape=flexArrow;endArrow=classic;startArrow=classic;html=1;rounded=0;entryX=0.5;entryY=1;entryDx=0;entryDy=0;" edge="1" parent="1" source="KJVf8ySQo7RGiVAvwsRW-4" target="KJVf8ySQo7RGiVAvwsRW-3">
          <mxGeometry width="100" height="100" relative="1" as="geometry">
            <mxPoint x="280" y="640" as="sourcePoint" />
            <mxPoint x="340" y="560" as="targetPoint" />
          </mxGeometry>
        </mxCell>
        <mxCell id="KJVf8ySQo7RGiVAvwsRW-9" value="REST API Calls" style="edgeLabel;html=1;align=center;verticalAlign=middle;resizable=0;points=[];" vertex="1" connectable="0" parent="KJVf8ySQo7RGiVAvwsRW-8">
          <mxGeometry x="0.3333" y="-5" relative="1" as="geometry">
            <mxPoint x="-5" y="27" as="offset" />
          </mxGeometry>
        </mxCell>
        <mxCell id="KJVf8ySQo7RGiVAvwsRW-11" value="Backend Server" style="text;html=1;align=center;verticalAlign=middle;resizable=0;points=[];autosize=1;strokeColor=none;fillColor=none;" vertex="1" parent="1">
          <mxGeometry x="75" y="258" width="110" height="30" as="geometry" />
        </mxCell>
        <mxCell id="KJVf8ySQo7RGiVAvwsRW-12" value="" style="shape=flexArrow;endArrow=classic;startArrow=classic;html=1;rounded=0;entryX=0.5;entryY=1;entryDx=0;entryDy=0;entryPerimeter=0;" edge="1" parent="1" source="KJVf8ySQo7RGiVAvwsRW-3" target="KJVf8ySQo7RGiVAvwsRW-1">
          <mxGeometry width="100" height="100" relative="1" as="geometry">
            <mxPoint x="250" y="470" as="sourcePoint" />
            <mxPoint x="350" y="370" as="targetPoint" />
          </mxGeometry>
        </mxCell>
        <mxCell id="KJVf8ySQo7RGiVAvwsRW-13" value="SQL Alchemy" style="edgeLabel;html=1;align=center;verticalAlign=middle;resizable=0;points=[];" vertex="1" connectable="0" parent="KJVf8ySQo7RGiVAvwsRW-12">
          <mxGeometry x="-0.0633" y="2" relative="1" as="geometry">
            <mxPoint x="2" y="-8" as="offset" />
          </mxGeometry>
        </mxCell>
        <mxCell id="KJVf8ySQo7RGiVAvwsRW-14" value="PostgreSQL 15" style="text;html=1;align=center;verticalAlign=middle;resizable=0;points=[];autosize=1;strokeColor=none;fillColor=none;" vertex="1" parent="1">
          <mxGeometry x="410" y="75" width="110" height="30" as="geometry" />
        </mxCell>
      </root>
    </mxGraphModel>
  </diagram>
</mxfile>
